<svg xmlns="http://www.w3.org/2000/svg" viewBox="0 0 1200 1100">
  <rect width="1200" height="1100" fill="#fcfbf7"/>
  <text x="60" y="70" font-family="Georgia, serif" font-size="34" fill="#1d3557">Professional Semantic Portfolio Design Document</text>
  <text x="60" y="110" font-family="Georgia, serif" font-size="22" fill="#5b4636">Sitemap and wireframes prepared before coding</text>

  <text x="60" y="170" font-family="Georgia, serif" font-size="28" fill="#1d3557">1. Sitemap</text>
  <rect x="500" y="200" width="200" height="70" rx="10" fill="#a8dadc" stroke="#1d3557" stroke-width="3"/>
  <text x="560" y="244" font-family="Georgia, serif" font-size="24" fill="#1d3557">index.html</text>

  <rect x="90" y="360" width="180" height="65" rx="10" fill="#f4a261" stroke="#1d3557" stroke-width="3"/>
  <rect x="350" y="360" width="180" height="65" rx="10" fill="#f4a261" stroke="#1d3557" stroke-width="3"/>
  <rect x="610" y="360" width="180" height="65" rx="10" fill="#f4a261" stroke="#1d3557" stroke-width="3"/>
  <rect x="870" y="360" width="180" height="65" rx="10" fill="#f4a261" stroke="#1d3557" stroke-width="3"/>
  <text x="138" y="401" font-family="Georgia, serif" font-size="24" fill="#1d3557">about.html</text>
  <text x="400" y="401" font-family="Georgia, serif" font-size="24" fill="#1d3557">gallery.html</text>
  <text x="674" y="401" font-family="Georgia, serif" font-size="24" fill="#1d3557">data.html</text>
  <text x="918" y="401" font-family="Georgia, serif" font-size="24" fill="#1d3557">contact.html</text>

  <line x1="600" y1="270" x2="180" y2="360" stroke="#6d6875" stroke-width="4"/>
  <line x1="600" y1="270" x2="440" y2="360" stroke="#6d6875" stroke-width="4"/>
  <line x1="600" y1="270" x2="700" y2="360" stroke="#6d6875" stroke-width="4"/>
  <line x1="600" y1="270" x2="960" y2="360" stroke="#6d6875" stroke-width="4"/>

  <text x="60" y="500" font-family="Georgia, serif" font-size="28" fill="#1d3557">2. Home Page Wireframe</text>
  <rect x="60" y="540" width="480" height="440" fill="#ffffff" stroke="#1d3557" stroke-width="3"/>
  <rect x="85" y="565" width="430" height="55" fill="#bde0fe" stroke="#1d3557" stroke-width="2"/>
  <rect x="85" y="635" width="430" height="45" fill="#ffd6a5" stroke="#1d3557" stroke-width="2"/>
  <rect x="85" y="695" width="275" height="210" fill="#fefae0" stroke="#1d3557" stroke-width="2"/>
  <rect x="375" y="695" width="140" height="210" fill="#e9edc9" stroke="#1d3557" stroke-width="2"/>
  <rect x="85" y="920" width="430" height="35" fill="#d4a373" stroke="#1d3557" stroke-width="2"/>
  <text x="255" y="600" font-family="Georgia, serif" font-size="22" fill="#1d3557">header</text>
  <text x="265" y="664" font-family="Georgia, serif" font-size="22" fill="#1d3557">nav</text>
  <text x="175" y="790" font-family="Georgia, serif" font-size="24" fill="#1d3557">main</text>
  <text x="160" y="745" font-family="Georgia, serif" font-size="18" fill="#1d3557">article</text>
  <text x="414" y="805" font-family="Georgia, serif" font-size="20" fill="#1d3557">aside</text>
  <text x="255" y="945" font-family="Georgia, serif" font-size="20" fill="#1d3557">footer</text>

  <text x="620" y="500" font-family="Georgia, serif" font-size="28" fill="#1d3557">3. Gallery Page Wireframe</text>
  <rect x="620" y="540" width="520" height="440" fill="#ffffff" stroke="#1d3557" stroke-width="3"/>
  <rect x="645" y="565" width="470" height="55" fill="#bde0fe" stroke="#1d3557" stroke-width="2"/>
  <rect x="645" y="635" width="470" height="45" fill="#ffd6a5" stroke="#1d3557" stroke-width="2"/>
  <rect x="645" y="700" width="140" height="110" fill="#f1faee" stroke="#1d3557" stroke-width="2"/>
  <rect x="810" y="700" width="140" height="110" fill="#f1faee" stroke="#1d3557" stroke-width="2"/>
  <rect x="975" y="700" width="140" height="110" fill="#f1faee" stroke="#1d3557" stroke-width="2"/>
  <rect x="645" y="830" width="470" height="105" fill="#e9edc9" stroke="#1d3557" stroke-width="2"/>
  <rect x="645" y="945" width="470" height="20" fill="#d4a373" stroke="#1d3557" stroke-width="2"/>
  <text x="870" y="600" font-family="Georgia, serif" font-size="22" fill="#1d3557">header</text>
  <text x="880" y="664" font-family="Georgia, serif" font-size="22" fill="#1d3557">nav</text>
  <text x="690" y="760" font-family="Georgia, serif" font-size="18" fill="#1d3557">figure</text>
  <text x="855" y="760" font-family="Georgia, serif" font-size="18" fill="#1d3557">figure</text>
  <text x="1020" y="760" font-family="Georgia, serif" font-size="18" fill="#1d3557">figure</text>
  <text x="810" y="885" font-family="Georgia, serif" font-size="20" fill="#1d3557">object media area</text>
  <text x="875" y="960" font-family="Georgia, serif" font-size="18" fill="#1d3557">footer</text>
</svg>
